<?xml version="1.0" encoding="UTF-8" standalone="no"?>
<!DOCTYPE svg PUBLIC "-//W3C//DTD SVG 1.1//EN" "http://www.w3.org/Graphics/SVG/1.1/DTD/svg11.dtd">
<svg xmlns="http://www.w3.org/2000/svg" version="1.1" xmlns:xlink="http://www.w3.org/1999/xlink" width="650px" height="3030.0px">
<style>text {font-family:PingFangSC-Regular,Microsoft YaHei,'Hiragino Sans GB',Helvetica;font-size:14px;fill:#282828;}</style>
	<text x="0" y="47">童勿豆萝对流以魂快智植舱典辜小霜支畜部威滩呈记赔竿放廉谨裁络止商愉均下洒婆刮强胖甘说</text>
	<text x="0" y="95">刊散烦觉息扔猎甜肌赏捆扬磁挠凝凯巾纤袜饺嫂睡皇父妻华挥饲趣话较整肤布吞置环您衣吐肝胳</text>
	<text x="0" y="144">骨浅判佣圈伍慨罢义羽酬袍衔盲僚折刀贯蚊几储期慕眠逼逢腰馒盏统译状诞市林煌捞趋仿积劣伪</text>
	<text x="0" y="175">释习细目靠军陵宜狼责拣病刑犯笨孝今仙托臣科囊屠例暮术辨祝婶销让鲜南悠荒扒左闯砍鸡梅容</text>
	<text x="0" y="222">则审死游情滋踪梦嫌替导二眨参她肺贵到命作草恭爬心卵毅诗狡前胞搬希隔缩掉龙仅皆夺瞎团费</text>
	<text x="0" y="259">归阅识盯过会活岛郊芳借壤社录党洲牙寇咱丛野枪盈们毯要修催艘查施可砌串辰法剥做观攻像征</text>
	<text x="0" y="306">岂末凉砖乏押料鹅丸雪煤危妄关顿吃讨谎辱严辞温裤疮锹棵雀斯狭眼石认饥飞械芬葬漫肢迈在康</text>
	<text x="0" y="346">推朽碑多副派涛所略衬凤仰蹦决亚标旁鹿沙激九毫论黄紫亲输误亡购腐每侮窜醋尚灶柴骆卧者凶</text>
	<text x="0" y="379">戴题雁馋美估钱霉肃旦取硬钻按稼遍冠赢悲狐莫愧去呼惹姐看洁达艇栗弊冶约旱厉忍壮乐剑徐且</text>
	<text x="0" y="424">舰苍予空晶秩稀益淘章倚锅坚扩改孩遥剩俩乌化待柳厕互行漠调妈霞渔奴衫冈瑞冒医锈消药惨养</text>
	<text x="0" y="460">群颠栋菜匀妇灯掩纯楚泼犹此溪越虹泪露侦翼宾泽塔蛇腔赤运历什怀巩岭牺蓄路拐敌缓扭鹊娃量</text>
	<text x="0" y="497">育绒友架蛾弟桥崖材罪序堂笑芦寒颂最辉稍瞒堤饶孕动骤盼价考茶促丹慈旅枣换爷位克良隶太功</text>
	<text x="0" y="543">衰裕御驱外哪静州姻使摸源祥璃湾售汤才惜瓣矩虎罐谣殿降白境秘故席岩栏烈劳泡骂赴个胆住怜</text>
	<text x="0" y="575">打椅寸择筝拳往阳坑插葡狗娘天残菊后宋件七实雨戒懂吉味番烛峡旺膝幸挂铃撇态爹疏主唉摇走</text>
	<text x="0" y="614">附申拉了叙湿唐贞备衡某韵哨搭厂蹈晋批杆悦戚寄尽途城恩库址贤势街余不焦反爪圆怒革棉面舅</text>
	<text x="0" y="661">奋千检工删夫迁适枯祖证剃普将理翅坡涝版筋突脂啊屈叹融燕疫顷铅着饱苦凳迫笔弄碗症念带隐</text>
	<text x="0" y="706">型允秤由纳票翁滚亭敲层门径浓永丰愚花佳搅秃钩处连坊腥摘需词从创臂膛锦诵号荷耍演端结悬</text>
	<text x="0" y="739">愤饭桨殊僻鞠柱绳绸绍伟炕诸呆奥坛扣窃朝苏趁背望慧舞具削贺轻掏董颜监转队桶乘图倍液哥沉</text>
	<text x="0" y="779">召耗免裂通铸拆驻惯直挪停罗其虫血轧瓶慰弦乔暖顾蠢滔属墨脖抱丁糟介亮音芹挽挤贷园段风夜</text>
	<text x="0" y="824">池族摧藏深括私祸条紧鄙奸拖第更耻呀彩复桃姑躬敞策浙恋笛谈艰班茫粗筒蔽微宙损矛览助窝阀</text>
	<text x="0" y="860">晒迟僵包母格涌毁瘦咏色箱道铲倒俊差彼割讽横兄画墙卡么利君凑单巴广汪蹲弱纵爸斗抓井寿阁</text>
	<text x="0" y="910">饮玩营简邪锡痰堵津圣塌摩谊娱孤膨偿叉类昨灌垮赠滑力感赚双吓扎厘套丘疯卫鹰女辆宿灾该仍</text>
	<text x="0" y="945">牧粪庆阵耽底蕉恨卷蜘灿跑酱兵培桑甚纪默诚滤台角想展粉忽移肉职飘矮鱼浮嚼烤志操块泄霸鸟</text>
	<text x="0" y="992">绢计迎全阴醒刃爆并而敢污陕还脱闸股校占火脏恐秆否柿泰禾虑碎蛛锄我葵恼厌拿超擦杀贡孙访</text>
	<text x="0" y="1034">鸦洋年昏付视等役歼篇轿瓦保随胀争吼起圾述劲租健忘丙防蒸妖来弹日隆烧梢织穗合扑筑叛姨跪</text>
	<text x="0" y="1069">喝叶仗披远男都誓疤炭分质生闲忧际债振哀够肥刺体战常果棚荣杠顶善山锁援评淡螺偏雷春菌次</text>
	<text x="0" y="1109">帅俱宅竞捐违问疾身恢奉鬼招符哄努编启渣趟国辟扫尤驴咳唱堆辛仇怎屋撒遗塑碧絮脚饼烂赵袄</text>
	<text x="0" y="1159">避用挡督效寨尸院请刚丧欠片头两毕至孔摄款吧足浸繁偶向析鞋漏岗峰范聋局垦狂农疼稻覆粒规</text>
	<text x="0" y="1191">暑龟钉廊滴赞刷管兼排浪纷江誉庄选验垂候剪治徒受坦懒大粮恒驼珠茧答掠仆肠逗断之渐句百史</text>
	<text x="0" y="1235">响德雅围讲晃烫蜂岸码唤热颈知钥睛夏递星满乳呜骑独绞虚告犁酷淋柏如锣怕忌鼠咬拨葛开中芝</text>
	<text x="0" y="1270">疆诊帮欧抵喷潮数榴档杨物猜匠炊蹄诉限尾供皱映灰腾歉捎耐餐愁短挎速窗惩三麦脑制业朋糠变</text>
	<text x="0" y="1318">射虾幅五性这朱扇八赶耕的棍客神沃侧邻探煎嚷学协准暗奇宝负刻腿仁授袋鞭稠宇挖氏苹吸核盘</text>
	<text x="0" y="1359">辈怪气棋众疗槽逆拢订赖胁谁何车读穿样持脉箩与权羞袖搁木固肿任补安节滨求村富浆构累纠再</text>
	<text x="0" y="1400">袭研舌秧旬冬染吊它茎宰匹芒亦货基慌愿扁是旷也钓宣跨伞透糖口俭埋代岔品额炮荐沿加沟摔酒</text>
	<text x="0" y="1436">交晓腹引潜夹弃搂首政颤牢思六纲及些牵臭俯追揪俗率沾帝干泻房列窑壁蜡柜算汇骄脆茂汽肚伏</text>
	<text x="0" y="1480">系缠舒传迅榆赌苗蛙坝碍扰踩珍斧乱链但暴谅哑详拍莲海励抛柔易宏增黑鸽办青胜兽获亿裹殃弓</text>
	<text x="0" y="1516">川粱欺幻疑扮壶喘篮武委闭晨丈渴哭伸航跟斥景案蜓贪啦尊汁妨姥吹跌很照墓谜确筛陶经影痕雹</text>
	<text x="0" y="1553">绝民坏绿鼻缴惭明杜贿守示驳缸初裳妙妥令勉发似课瞧汗啄倦膊芽训昌索卜辽蝶笋写伴雾咽树英</text>
	<text x="0" y="1586">触福艺旋时存倘居桂为建恳刘侍甲燥梳稳拦控薄叼异抄致彻捕娇姓礼拔氧北淹雕笼阿留出怠盗崇</text>
	<text x="0" y="1636">清帐员乒偷地驰旨狮仓午辅油撑兴担惊骗家泛枕教被鸭册闹官侄共醉秒表掀煮猾凭本电惧罩绑份</text>
	<text x="0" y="1670">蔬床框己搞奔聪束缝曾名载肩钢周夸切竖爽穴终帘焰斩摆定鸣绪米语晚猫谢询无一盐屑蒜尿躲纺</text>
	<text x="0" y="1719">蜜惕貌软撕律手炎显倡朴腊乡狸因士佛退勺鼓痛事挨毙匪竟古熔吗半唯升晴耀密老蔑声卸戏浇嘴</text>
	<text x="0" y="1753">添贱完恶循信现浑场虏牌即饰李锐张灭跳诱歇丝盆逝造扯人姿王龄玻他顽资撤休抹帜练文十甩钳</text>
	<text x="0" y="1794">蓬膀站尼素澡欲拒漆救桐伶巡畅买捉粥嫩光唇央币佩谷馅椒挺总月服司球键聚馆扛毒宫既暂侵京</text>
	<text x="0" y="1830">闪和捷秀区厚雄专虽就季怖云进攀遵抽践胸陷难夕垃劈膏迹魄听截执咸爱混废困贫逮程滥菠师握</text>
	<text x="0" y="1874">遇轰丑牛洪别立早伐万蚕乞燃划右器测能惠设坟步稿犬险土儿银遭给悼绩拥槐正享棕绣肾斜隙离</text>
	<text x="0" y="1920">抚狱羊勒遣失郎于叠报筹幼楼棒蚀厅障裙接宴猴捡嫁乓铺指店极昂继剧呢罚洽原维舟奖吵垄害食</text>
	<text x="0" y="1962">晌寺旧竹逃赛冰勾配元魔精涂尘侨巷或波挣曲丢未若勇室阶榨把萌愈当卖哈熄红揉涉洞铜领逐翠</text>
	<text x="0" y="2009">麻惰锻少签冻膜东锋庭书梨登金有拌垫耳机警陡驶沸哲内世许皂骡谋伙悔特送提帖扶轮蜻新钟券</text>
	<text x="0" y="2051">式粘水闷倾沈洗方昼怨冤上邮斑敏桌竭庙盖萄非又泊烟兰趴含斤模妹必成针重崭劝泉泥填乙收级</text>
	<text x="0" y="2094">界盒形户奶剖概驾仪糊眯础乎禁组根预板盟陈茄渠注屡真承巧那泳县好胶禽破梁柄辩闻应贸亏间</text>
	<text x="0" y="2144">象傲邀猪纹联恰亩叔乃饿歪投没却蛮樱湖然港浴匆厨忆渗乖溉延镰冲掘府咐箭筐纸喉点各绕殖黎</text>
	<text x="0" y="2177">省贼敬充贩吴察据回久迷穷玉豪幕拴得杯产座杂称线忙躁找错劫捏润零炉依哗塞掌矿蛋封漂欢缺</text>
	<text x="0" y="2225">钞蒙奏仔眉顺拘陪熊冷船傍皮帽薯护栽假吨锯胡宗况贴杰酸济脸叮杏边试灵届匙株糕嗽四梯朗急</text>
	<text x="0" y="2275">齿采技宵塘喜挑西忠震寻昆举厦自搏务胃盾阻堪减另锤炒羡喂蝇纽堡谦败税集绘壳议溜返森著庸</text>
	<text x="0" y="2318">你悉页长始陆装炸琴坐肯田肆茅碌镇伯高鉴贝净伤辣网橘橡财宪捧辫临朵荡除拼域歌嘉悄谱河烘</text>
	<text x="0" y="2356">蝴意翻痒鲁公抗播松嘱便般绵熟叨涨俘窄脾榜欣解跃纱马酿入缎睬脊慎拜盛缘比搜碰傅抖枝齐已</text>
	<text x="0" y="2393">屿弯度镜孟姜睁汉牲浊究值博阔里摊惑宁患只兆颗击艳铁项郑慢同携剂凡旗岁舍疲字蓝帆尝傻香</text>
	<text x="0" y="2436">丽须喊踢磨浩遮近葱轨言沫踏兔躺婚吩压抬毛炼尖喇叫相狠畏平撞献拾描落种蚁晕巨企揭薪垒讯</text>
	<text x="0" y="2485">渡屯猛秋悟见距籍先萍优子续宽勤嗓蚂低尺抢瓜</text>
</svg>